<svg xmlns="http://www.w3.org/2000/svg" viewBox="0 0 24 24"><path d="M13.983 11.103h2.119v-1.984h-2.119v1.984zm-2.12 0h2.119v-1.984H11.863v1.984zm-2.116 0h2.119v-1.984H9.747v1.984zm-2.12 0h2.119v-1.984H7.627v1.984zm-2.12 0h2.119v-1.984H5.507v1.984zm2.12-2.906h2.119V6.213H7.627v1.984zm2.12 0h2.119V6.213H9.747v1.984zm2.116 0h2.119V6.213H11.863v1.984zm2.12 0h2.119V6.213H13.983v1.984zm-6.356 2.906h2.119v-1.984H7.627v1.984zm8.476 0h2.119v-1.984h-2.119v1.984zm-2.12 2.906h2.119v-1.984H13.983v1.984zm-2.12 0h2.119v-1.984H11.863v1.984zm-2.116 0h2.119v-1.984H9.747v1.984zm-2.12 0h2.119v-1.984H7.627v1.984zm-2.12 0h2.119v-1.984H5.507v1.984zm2.12 2.906h2.119v-1.984H7.627v1.984zm2.12 0h2.119v-1.984H9.747v1.984zm2.116 0h2.119v-1.984H11.863v1.984zm2.12 0h2.119v-1.984H13.983v1.984zm-6.356-2.906h2.119v-1.984H7.627v1.984zm8.476 0h2.119v-1.984h-2.119v1.984z" fill="#2496ED"/><path d="M4.5 10.103h15c.83 0 1.5.67 1.5 1.5v8c0 .83-.67 1.5-1.5 1.5h-15c-.83 0-1.5-.67-1.5-1.5v-8c0-.83.67-1.5 1.5-1.5z" fill="#2496ED" opacity="0.1"/></svg>
