<svg xmlns="http://www.w3.org/2000/svg" viewBox="0 0 24 24"><rect width="24" height="24" rx="2" fill="#F7DF1E"/><path d="M16.5 16.5c-.5.5-1.2.8-1.8.8-.8 0-1.3-.4-1.3-1s.5-1 1.3-1.5l.6-.3c.5-.2.7-.4.7-.7 0-.4-.3-.7-.8-.7-.5 0-.9.2-1.2.5l-1-1.5c.5-.4 1.2-.7 2.2-.7 1.3 0 2.2.7 2.2 1.8 0 .8-.4 1.3-1 1.7l-.6.3c-.4.2-.6.4-.6.7 0 .3.3.5.7.5.4 0 .8-.2 1.1-.4l1 1.5zm-6.5 0c-.3 0-.5-.1-.7-.2l-.1.2h-1.2v-5.5h1.5v2.1c.2-.2.5-.3.8-.3.5 0 .9.2 1.2.5l1-1.5c-.4-.4-1-.6-1.7-.6-1.1 0-1.9.7-1.9 1.8 0 1.1.8 1.8 1.9 1.8.3 0 .6-.1.9-.2v-1.5c-.2.1-.4.1-.6.1-.3 0-.5-.1-.5-.3 0-.2.2-.3.5-.3.2 0 .4.1.5.2l.8-1.3c-.3-.2-.7-.3-1.3-.3-1 0-1.7.6-1.7 1.4 0 .8.7 1.4 1.7 1.4z" fill="#000000"/></svg>
